<svg width="250" height="115" viewBox="0 0 250 115" fill="none" xmlns="http://www.w3.org/2000/svg">
<path d="M3.936 18.8H19.872C25.312 18.8 29.28 20.08 31.776 22.64C34.272 25.136 35.52 29.008 35.52 34.256V36.944C35.52 40.4 34.944 43.216 33.792 45.392C32.704 47.568 31.008 49.136 28.704 50.096V50.288C33.952 52.08 36.576 56.752 36.576 64.304V70.064C36.576 75.248 35.2 79.216 32.448 81.968C29.76 84.656 25.792 86 20.544 86H3.936V18.8ZM18.624 46.16C20.736 46.16 22.304 45.616 23.328 44.528C24.416 43.44 24.96 41.616 24.96 39.056V35.312C24.96 32.88 24.512 31.12 23.616 30.032C22.784 28.944 21.44 28.4 19.584 28.4H14.496V46.16H18.624ZM20.544 76.4C22.4 76.4 23.776 75.92 24.672 74.96C25.568 73.936 26.016 72.208 26.016 69.776V63.92C26.016 60.848 25.472 58.736 24.384 57.584C23.36 56.368 21.632 55.76 19.2 55.76H14.496V76.4H20.544ZM42.7485 18.8H53.3085V86H42.7485V18.8ZM61.2173 18.8H77.1533C82.5933 18.8 86.5613 20.08 89.0573 22.64C91.5533 25.136 92.8013 29.008 92.8013 34.256V36.944C92.8013 40.4 92.2253 43.216 91.0733 45.392C89.9853 47.568 88.2893 49.136 85.9853 50.096V50.288C91.2333 52.08 93.8573 56.752 93.8573 64.304V70.064C93.8573 75.248 92.4813 79.216 89.7293 81.968C87.0413 84.656 83.0733 86 77.8253 86H61.2173V18.8ZM75.9053 46.16C78.0173 46.16 79.5853 45.616 80.6093 44.528C81.6973 43.44 82.2413 41.616 82.2413 39.056V35.312C82.2413 32.88 81.7933 31.12 80.8973 30.032C80.0653 28.944 78.7213 28.4 76.8653 28.4H71.7773V46.16H75.9053ZM77.8253 76.4C79.6813 76.4 81.0573 75.92 81.9532 74.96C82.8493 73.936 83.2973 72.208 83.2973 69.776V63.92C83.2973 60.848 82.7533 58.736 81.6653 57.584C80.6413 56.368 78.9133 55.76 76.4813 55.76H71.7773V76.4H77.8253ZM100.03 18.8H110.59V76.4H127.966V86H100.03V18.8ZM133.03 18.8H143.59V86H133.03V18.8ZM166.763 86.96C161.579 86.96 157.611 85.488 154.859 82.544C152.107 79.6 150.73 75.44 150.73 70.064V34.736C150.73 29.36 152.107 25.2 154.859 22.256C157.611 19.312 161.579 17.84 166.763 17.84C171.947 17.84 175.915 19.312 178.667 22.256C181.419 25.2 182.795 29.36 182.795 34.736V70.064C182.795 75.44 181.419 79.6 178.667 82.544C175.915 85.488 171.947 86.96 166.763 86.96ZM166.763 77.36C170.411 77.36 172.234 75.152 172.234 70.736V34.064C172.234 29.648 170.411 27.44 166.763 27.44C163.115 27.44 161.291 29.648 161.291 34.064V70.736C161.291 75.152 163.115 77.36 166.763 77.36Z" fill="black"/>
<path d="M186.72 51.4H191.808L194.16 77.224H194.256L196.752 51.4H202.512L205.008 77.224H205.104L207.456 51.4H212.016L208.608 85H202.032L199.632 62.344H199.536L197.136 85H190.128L186.72 51.4ZM214.687 51.4H229.087V56.2H219.967V65.08H227.215V69.88H219.967V80.2H229.087V85H214.687V51.4ZM232.124 51.4H240.092C242.812 51.4 244.796 52.04 246.044 53.32C247.292 54.568 247.916 56.504 247.916 59.128V60.472C247.916 62.2 247.628 63.608 247.052 64.696C246.508 65.784 245.66 66.568 244.508 67.048V67.144C247.132 68.04 248.444 70.376 248.444 74.152V77.032C248.444 79.624 247.756 81.608 246.38 82.984C245.036 84.328 243.052 85 240.428 85H232.124V51.4ZM239.468 65.08C240.524 65.08 241.308 64.808 241.82 64.264C242.364 63.72 242.636 62.808 242.636 61.528V59.656C242.636 58.44 242.412 57.56 241.964 57.016C241.548 56.472 240.876 56.2 239.948 56.2H237.404V65.08H239.468ZM240.428 80.2C241.356 80.2 242.044 79.96 242.492 79.48C242.94 78.968 243.164 78.104 243.164 76.888V73.96C243.164 72.424 242.892 71.368 242.348 70.792C241.836 70.184 240.972 69.88 239.756 69.88H237.404V80.2H240.428Z" fill="black"/>
<path d="M214.22 19.2031C211.68 17.9902 208.129 17.3961 203.375 17.375C202.927 17.3689 202.487 17.4997 202.115 17.7498C201.81 17.9562 201.56 18.2346 201.387 18.5604C201.214 18.8861 201.124 19.2493 201.125 19.618V39.7344C201.125 41.0942 202.093 42.1201 203.375 42.1201C208.372 42.1201 213.385 42.587 216.387 45.4248C216.428 45.4638 216.48 45.4898 216.535 45.4997C216.591 45.5097 216.649 45.503 216.701 45.4805C216.753 45.458 216.797 45.4208 216.828 45.3733C216.859 45.3259 216.875 45.2705 216.875 45.2138V21.5108C216.875 21.3509 216.841 21.1928 216.775 21.0472C216.708 20.9017 216.612 20.772 216.491 20.667C215.803 20.0791 215.039 19.5867 214.22 19.2031ZM233.885 17.7477C233.513 17.4982 233.073 17.3682 232.625 17.375C227.871 17.3961 224.32 17.9874 221.78 19.2031C220.961 19.586 220.196 20.0775 219.508 20.6642C219.388 20.7694 219.291 20.8991 219.225 21.0446C219.159 21.1902 219.125 21.3481 219.125 21.508V45.2124C219.125 45.2669 219.141 45.3201 219.171 45.3654C219.201 45.4108 219.244 45.4462 219.294 45.4673C219.344 45.4884 219.4 45.4942 219.453 45.484C219.507 45.4739 219.556 45.4481 219.595 45.41C221.4 43.617 224.567 42.118 232.628 42.1187C233.225 42.1187 233.797 41.8816 234.219 41.4597C234.641 41.0377 234.878 40.4654 234.878 39.8687V19.6187C234.879 19.2493 234.788 18.8854 234.615 18.559C234.442 18.2327 234.191 17.9541 233.885 17.7477Z" fill="black"/>
</svg>
