<svg xmlns="http://www.w3.org/2000/svg" xmlns:xlink="http://www.w3.org/1999/xlink" width="1920" zoomAndPan="magnify" viewBox="0 0 1440 809.999993" height="1080" preserveAspectRatio="xMidYMid meet" version="1.0"><rect x="-144" width="1728" fill="#ffffff" y="-80.999999" height="971.999992" fill-opacity="1"/><path stroke-linecap="round" transform="matrix(3, 0, 0, 3, 647.999974, 333.000003)" fill="none" stroke-linejoin="round" d="M 3.000009 5.999999 L 6.500009 5.999999 L 8.000009 12 M 8.000009 12 L 13.000009 32.000001 L 39.000011 32.000001 L 44.000011 12 Z M 8.000009 12 " stroke="#000000" stroke-width="4" stroke-opacity="1" stroke-miterlimit="4"/><path stroke-linecap="round" transform="matrix(3, 0, 0, 3, 647.999974, 333.000003)" fill="none" stroke-linejoin="round" d="M 16.00001 39.000001 C 16.00001 39.196615 15.980478 39.391928 15.942718 39.584636 C 15.903655 39.778647 15.847666 39.966147 15.772145 40.148438 C 15.696624 40.329428 15.604176 40.502605 15.494801 40.666668 C 15.385426 40.83073 15.260426 40.981772 15.121103 41.121095 C 14.98178 41.260418 14.830739 41.385418 14.666676 41.494793 C 14.502614 41.604168 14.329437 41.696616 14.148447 41.772136 C 13.966155 41.847657 13.778655 41.903647 13.584645 41.942709 C 13.391937 41.98047 13.196624 42.000001 13.000009 42.000001 C 12.803395 42.000001 12.608082 41.98047 12.415374 41.942709 C 12.221364 41.903647 12.033864 41.847657 11.851572 41.772136 C 11.670582 41.696616 11.497405 41.604168 11.333343 41.494793 C 11.16928 41.385418 11.018239 41.260418 10.878916 41.121095 C 10.739593 40.981772 10.614593 40.83073 10.505218 40.666668 C 10.395843 40.502605 10.303395 40.329428 10.227874 40.148438 C 10.152353 39.966147 10.096363 39.778647 10.057301 39.584636 C 10.019541 39.391928 10.000009 39.196615 10.000009 39.000001 C 10.000009 38.803386 10.019541 38.608074 10.057301 38.415365 C 10.096363 38.221355 10.152353 38.033855 10.227874 37.851563 C 10.303395 37.670574 10.395843 37.497397 10.505218 37.333334 C 10.614593 37.169272 10.739593 37.01823 10.878916 36.878907 C 11.018239 36.739584 11.16928 36.614584 11.333343 36.505209 C 11.497405 36.395834 11.670582 36.303386 11.851572 36.227865 C 12.033864 36.152344 12.221364 36.096355 12.415374 36.057292 C 12.608082 36.019532 12.803395 36.000001 13.000009 36.000001 C 13.196624 36.000001 13.391937 36.019532 13.584645 36.057292 C 13.778655 36.096355 13.966155 36.152344 14.148447 36.227865 C 14.329437 36.303386 14.502614 36.395834 14.666676 36.505209 C 14.830739 36.614584 14.98178 36.739584 15.121103 36.878907 C 15.260426 37.01823 15.385426 37.169272 15.494801 37.333334 C 15.604176 37.497397 15.696624 37.670574 15.772145 37.851563 C 15.847666 38.033855 15.903655 38.221355 15.942718 38.415365 C 15.980478 38.608074 16.00001 38.803386 16.00001 39.000001 Z M 16.00001 39.000001 " stroke="#000000" stroke-width="4" stroke-opacity="1" stroke-miterlimit="4"/><path stroke-linecap="round" transform="matrix(3, 0, 0, 3, 647.999974, 333.000003)" fill="none" stroke-linejoin="round" d="M 42.000011 39.000001 C 42.000011 39.196615 41.98048 39.391928 41.942719 39.584636 C 41.903657 39.778647 41.847667 39.966147 41.772146 40.148438 C 41.696625 40.329428 41.604178 40.502605 41.494803 40.666668 C 41.385428 40.83073 41.260428 40.981772 41.121105 41.121095 C 40.981782 41.260418 40.83074 41.385418 40.666678 41.494793 C 40.502615 41.604168 40.329438 41.696616 40.148448 41.772136 C 39.966157 41.847657 39.778657 41.903647 39.584646 41.942709 C 39.391938 41.98047 39.196625 42.000001 39.000011 42.000001 C 38.803396 42.000001 38.608084 41.98047 38.415375 41.942709 C 38.221365 41.903647 38.033865 41.847657 37.851573 41.772136 C 37.670584 41.696616 37.497407 41.604168 37.333344 41.494793 C 37.169281 41.385418 37.01824 41.260418 36.878917 41.121095 C 36.739594 40.981772 36.614594 40.83073 36.505219 40.666668 C 36.395844 40.502605 36.303396 40.329428 36.227875 40.148438 C 36.152354 39.966147 36.096365 39.778647 36.057302 39.584636 C 36.019542 39.391928 36.000011 39.196615 36.000011 39.000001 C 36.000011 38.803386 36.019542 38.608074 36.057302 38.415365 C 36.096365 38.221355 36.152354 38.033855 36.227875 37.851563 C 36.303396 37.670574 36.395844 37.497397 36.505219 37.333334 C 36.614594 37.169272 36.739594 37.01823 36.878917 36.878907 C 37.01824 36.739584 37.169281 36.614584 37.333344 36.505209 C 37.497407 36.395834 37.670584 36.303386 37.851573 36.227865 C 38.033865 36.152344 38.221365 36.096355 38.415375 36.057292 C 38.608084 36.019532 38.803396 36.000001 39.000011 36.000001 C 39.196625 36.000001 39.391938 36.019532 39.584646 36.057292 C 39.778657 36.096355 39.966157 36.152344 40.148448 36.227865 C 40.329438 36.303386 40.502615 36.395834 40.666678 36.505209 C 40.83074 36.614584 40.981782 36.739584 41.121105 36.878907 C 41.260428 37.01823 41.385428 37.169272 41.494803 37.333334 C 41.604178 37.497397 41.696625 37.670574 41.772146 37.851563 C 41.847667 38.033855 41.903657 38.221355 41.942719 38.415365 C 41.98048 38.608074 42.000011 38.803386 42.000011 39.000001 Z M 42.000011 39.000001 " stroke="#000000" stroke-width="4" stroke-opacity="1" stroke-miterlimit="4"/></svg>