<svg xmlns="http://www.w3.org/2000/svg" xmlns:xlink="http://www.w3.org/1999/xlink" width="500" zoomAndPan="magnify" viewBox="0 0 375 374.999991" height="500" preserveAspectRatio="xMidYMid meet" version="1.0"><defs><g/><clipPath id="09b7cd8f5f"><path d="M 83.351562 49.742188 L 291.648438 49.742188 L 291.648438 258.039062 L 83.351562 258.039062 Z M 83.351562 49.742188 " clip-rule="nonzero"/></clipPath><clipPath id="0e45896aa8"><path d="M 187.5 49.742188 C 129.980469 49.742188 83.351562 96.371094 83.351562 153.890625 C 83.351562 211.410156 129.980469 258.039062 187.5 258.039062 C 245.019531 258.039062 291.648438 211.410156 291.648438 153.890625 C 291.648438 96.371094 245.019531 49.742188 187.5 49.742188 Z M 187.5 49.742188 " clip-rule="nonzero"/></clipPath><clipPath id="51bd136a12"><path d="M 99 65.335938 L 275.945312 65.335938 L 275.945312 247 L 99 247 Z M 99 65.335938 " clip-rule="nonzero"/></clipPath></defs><rect x="-37.5" width="450" fill="#ffffff" y="-37.499999" height="449.999989" fill-opacity="1"/><rect x="-37.5" width="450" fill="#ffffff" y="-37.499999" height="449.999989" fill-opacity="1"/><g clip-path="url(#09b7cd8f5f)"><g clip-path="url(#0e45896aa8)"><path fill="#ffbd59" d="M 83.351562 49.742188 L 291.648438 49.742188 L 291.648438 258.039062 L 83.351562 258.039062 Z M 83.351562 49.742188 " fill-opacity="1" fill-rule="nonzero"/></g></g><g clip-path="url(#51bd136a12)"><path fill="#000000" d="M 187.441406 65.335938 C 138.65625 65.335938 99.109375 104.835938 99.109375 153.5625 C 99.109375 177.371094 108.554688 198.972656 123.898438 214.839844 C 122.835938 232.730469 126.6875 244.042969 135.257812 246.480469 C 142.71875 247.582031 148.902344 245.691406 158.222656 236.84375 C 167.367188 240.042969 177.199219 241.789062 187.441406 241.789062 C 236.230469 241.789062 275.777344 202.289062 275.777344 153.5625 C 275.777344 104.835938 236.230469 65.335938 187.441406 65.335938 Z M 180.402344 206.753906 C 159.25 231.753906 144.628906 243.898438 136.539062 243.179688 C 128.726562 238.785156 125.875 229.179688 128.148438 213.15625 C 131.15625 211.765625 134.511719 211.261719 138.203125 211.644531 L 134.261719 215.578125 C 146.023438 211.03125 158.511719 204.742188 171.71875 196.714844 C 173.875 193.882812 176.410156 188.003906 179.320312 179.074219 L 191.332031 170.25 C 193.292969 169.238281 194.804688 172.046875 194.664062 173.746094 L 188.773438 179.15625 C 188.148438 180.578125 188.398438 181.132812 189.53125 180.820312 L 196.320312 174.988281 C 198.058594 175.597656 198.738281 176.796875 198.363281 178.589844 L 191.617188 184.71875 C 191.21875 185.707031 191.640625 185.945312 192.699219 185.867188 L 199.394531 181.105469 C 201.191406 182.015625 201.53125 182.726562 200.75 184.3125 L 195.234375 189.144531 C 194.664062 190.132812 195.386719 190.449219 196.519531 190.359375 L 201.964844 186.542969 C 203.894531 186.878906 203.710938 188.460938 203.082031 190.089844 L 194.484375 197.914062 C 189.765625 203.996094 185.203125 206.070312 180.402344 206.753906 Z M 125.222656 208.542969 C 128.957031 195.585938 141.347656 172.203125 147.078125 164.269531 C 155.917969 156.050781 160.480469 181.214844 151.199219 205.753906 C 149.3125 206.074219 142.605469 208.921875 142.605469 208.921875 C 137.433594 207.003906 129.601562 207.460938 125.222656 208.542969 Z M 140.398438 137.277344 C 135.675781 137.558594 134.179688 135.449219 135.902344 130.953125 L 160.109375 116.316406 L 158.4375 120.679688 L 140.398438 131.160156 C 138.210938 133.339844 138.210938 135.378906 140.398438 137.277344 Z M 151.835938 136.46875 L 153.679688 139.730469 L 146.03125 144.128906 L 144.332031 141.542969 Z M 151.464844 143.742188 L 156.03125 150.964844 C 157.097656 151.425781 158.074219 151.3125 158.96875 150.625 C 158.074219 152.808594 156.710938 153.464844 154.882812 152.585938 L 149.703125 144.5625 Z M 155.515625 128.296875 L 160.828125 125.03125 C 160.34375 127.683594 160.824219 130.746094 162.261719 134.21875 L 187.324219 171.050781 C 186.5625 171.539062 185.835938 172.011719 185.136719 172.492188 L 160.019531 135.445312 Z M 199.550781 108.890625 C 198.753906 102.097656 193.125 99.429688 182.664062 100.890625 C 193.777344 92.804688 203.46875 94.425781 211.734375 105.761719 Z M 213.652344 107.152344 L 226.363281 107.152344 C 219.359375 113.316406 210.304688 114.996094 199.203125 112.195312 Z M 192.46875 122.230469 L 196.898438 121.644531 C 196.433594 120.3125 197.949219 117.613281 198.558594 114.796875 C 200.304688 114.976562 202.691406 115.21875 205.722656 115.53125 L 205.511719 117.851562 L 208.523438 120.855469 C 210.949219 125.039062 209.332031 126.121094 209.851562 129.515625 L 210.695312 134.03125 C 214.035156 137.347656 211.191406 139.28125 209.644531 139.476562 C 202.34375 141.402344 195.789062 139.40625 193.257812 134.730469 C 192.546875 139.40625 195.941406 141.683594 199.289062 145.042969 C 199.757812 151.683594 198.765625 157.496094 196.851562 159.578125 C 193.402344 160.28125 188.464844 160.617188 184.027344 159.914062 L 177.863281 151.078125 L 181.902344 134.730469 L 184.730469 133.066406 C 187.390625 134.011719 190.25 133.46875 191.09375 131.832031 C 179.894531 132.621094 181.269531 109.039062 192.46875 122.230469 Z M 199.390625 163.324219 L 195.960938 170.761719 C 194.902344 168.074219 191.542969 167.816406 189.910156 169.164062 L 186.125 163.253906 Z M 177.753906 176.484375 L 176.558594 181.199219 L 169.597656 181.199219 L 168.679688 162.695312 Z M 203.339844 208.316406 C 204.976562 205.742188 204.976562 202.75 203.339844 199.335938 L 200.984375 195.863281 C 201.671875 195.335938 202.292969 194.738281 203.070312 194.195312 L 205.183594 197.296875 C 207.671875 202.511719 207.058594 206.183594 203.339844 208.316406 Z M 216.757812 181.078125 L 202.839844 181.085938 C 202.371094 179.3125 201.625 178.929688 200.074219 178.347656 C 199.980469 176.277344 199.300781 173.730469 197.085938 173.027344 C 199.109375 169.214844 203.113281 161.453125 207.953125 152.34375 C 208.890625 152.363281 209.652344 153.125 210.234375 154.621094 L 211.800781 168.808594 C 208.375 167.472656 207.613281 166.253906 204.925781 166.730469 C 202.167969 167.800781 199.0625 172.03125 199.0625 172.03125 L 204.617188 169.941406 C 206.347656 169.386719 210.273438 171.316406 214.40625 173.582031 L 211.949219 155.261719 C 213.132812 155.785156 214.941406 156.402344 217.011719 157.097656 Z M 230.941406 217.570312 C 234.144531 218.121094 237.875 217.496094 241.097656 216.597656 C 237.84375 219.035156 234.265625 221.367188 230.941406 223.53125 Z M 244.160156 214.175781 C 238.839844 214.699219 234.726562 215.011719 230.941406 214.292969 L 230.941406 166.175781 C 240.082031 169.460938 246.488281 189.449219 250.972656 206.496094 C 249.589844 209.105469 247.128906 211.683594 244.160156 214.175781 Z M 253.714844 201.976562 C 248.773438 186.574219 245.066406 175.375 235.042969 164.648438 C 230.828125 160.425781 223.824219 157.855469 211.949219 153.292969 C 211.207031 151.039062 210.109375 149.351562 207.945312 148.964844 L 207.890625 144.121094 L 215.628906 142.242188 C 217.183594 141.695312 219.652344 140.507812 219.464844 137.5625 C 219.421875 136.945312 219.117188 136.03125 218.015625 134.554688 C 218.136719 133.726562 219.777344 134.011719 219.863281 132.511719 C 219.996094 131.5625 219.574219 130.84375 218.59375 130.355469 L 220.105469 129.03125 L 219.121094 125.933594 L 222.871094 123.964844 C 223.902344 123.296875 224.234375 122.4375 223.859375 121.386719 L 219.15625 117.398438 C 225.519531 114.832031 232.554688 107.726562 229.546875 105.75 C 229.0625 105.429688 214.878906 105.609375 214.878906 105.609375 C 209.609375 95.011719 200.785156 91.410156 188.410156 94.808594 C 174.925781 100.488281 169.597656 109.921875 173.679688 122.710938 C 174.515625 126.097656 176.164062 129.667969 178.621094 133.421875 C 178.019531 139.632812 176.628906 144.140625 174.757812 147.789062 L 165.867188 134.253906 C 164.515625 129.402344 164.0625 124.582031 164.507812 119.800781 L 160.980469 113.328125 L 144.746094 122.199219 L 141.457031 117.570312 L 157.460938 108.058594 L 156.378906 104.277344 C 152.867188 101.167969 149.816406 100.765625 145.941406 101.539062 L 130.863281 110.78125 C 127.042969 113.667969 127.765625 117.230469 128.820312 119.984375 L 134.632812 128.261719 C 128.261719 135.554688 135.191406 141.363281 141.191406 139.320312 L 143.324219 138.355469 L 144.035156 139.691406 L 142.550781 141.175781 C 141.441406 143.90625 143.773438 147.378906 146.03125 146.601562 L 148.277344 145.53125 C 148.976562 146.644531 150.628906 149.398438 153.3125 153.679688 C 155.414062 156.148438 161.082031 154.550781 160.910156 150.265625 L 163.28125 153.519531 C 157.097656 155.757812 151.199219 157.179688 146.953125 160.539062 C 142.070312 163.886719 123.710938 201.769531 123.003906 205.652344 C 111.050781 190.957031 104.550781 172.757812 104.550781 153.5625 C 104.550781 131.449219 113.171875 110.65625 128.828125 95.019531 C 144.484375 79.382812 165.300781 70.769531 187.441406 70.769531 C 209.585938 70.769531 230.402344 79.382812 246.058594 95.019531 C 261.714844 110.65625 270.335938 131.449219 270.335938 153.5625 C 270.335938 171.566406 264.621094 188.691406 254.046875 202.875 Z M 253.714844 201.976562 " fill-opacity="1" fill-rule="evenodd"/></g><g fill="#000000" fill-opacity="1"><g transform="translate(78.484142, 306.183846)"><g><path d="M 3.015625 -1.203125 L 2.96875 -13.59375 L 3.0625 -14.53125 L 2.96875 -15.328125 L 3.015625 -16.109375 L 3.09375 -16.84375 L 3.015625 -17.796875 L 3.09375 -18.546875 L 3.0625 -19.40625 L 2.96875 -20.109375 L 3.140625 -24.734375 L 3.015625 -25.96875 L 3.140625 -27.671875 L 3.390625 -28.40625 L 4.296875 -28.859375 L 5.453125 -28.828125 L 6.3125 -28.90625 L 8.421875 -28.90625 L 9.171875 -28.828125 L 10.78125 -28.828125 L 12.0625 -28.90625 L 12.890625 -28.859375 L 14.125 -28.953125 L 14.859375 -28.859375 L 16.484375 -28.953125 L 17.390625 -28.828125 L 19.859375 -28.859375 L 20.5625 -28.40625 L 21.0625 -27.171875 L 20.984375 -25.609375 L 21.0625 -23.5 L 20.65625 -22.671875 L 19.828125 -22.265625 L 16.6875 -22.34375 L 15.8125 -22.265625 L 14.984375 -22.296875 L 14.25 -22.265625 L 13.046875 -22.34375 L 11.734375 -22.34375 L 10.9375 -21.8125 L 10.53125 -20.984375 L 10.609375 -19.125 L 10.53125 -18.328125 L 10.53125 -17.171875 L 10.984375 -16.3125 L 11.8125 -15.984375 L 12.71875 -16.015625 L 14.328125 -15.8125 L 16.515625 -15.984375 L 18.546875 -15.90625 L 19.40625 -15.5625 L 19.828125 -14.75 L 19.859375 -11.0625 L 19.453125 -9.78125 L 18.578125 -9.375 L 16.890625 -9.296875 L 16.0625 -9.375 L 15.203125 -9.328125 L 14.375 -9.421875 L 13.546875 -9.25 L 12.671875 -9.421875 L 11.765625 -9.328125 L 10.9375 -8.96875 L 10.578125 -8.140625 L 10.609375 -3.765625 L 10.53125 -2.96875 L 10.65625 -1.65625 L 10.15625 -0.40625 L 9.296875 -0.046875 L 7.234375 0.125 L 4.34375 0 L 3.421875 -0.40625 Z M 3.015625 -1.203125 "/></g></g></g><g fill="#000000" fill-opacity="1"><g transform="translate(100.99095, 306.183846)"><g><path d="M 14.375 0.125 L 13.546875 0.046875 L 12.71875 0.125 L 11.765625 0.078125 L 10.984375 -0.078125 L 9.296875 0.046875 L 8.546875 0 L 7.640625 0.078125 L 4.671875 0.046875 L 3.421875 -0.5 L 3.09375 -1.609375 L 3.015625 -2.515625 L 3.140625 -5.375 L 3.015625 -6.1875 L 3.09375 -6.984375 L 3.140625 -13.671875 L 3.015625 -14.40625 L 3.0625 -17.796875 L 3.140625 -18.578125 L 3.015625 -19.453125 L 3.09375 -23.5 L 2.96875 -24.40625 L 3.09375 -26.09375 L 3.015625 -27.671875 L 3.46875 -28.53125 L 4.34375 -28.859375 L 5.15625 -28.828125 L 5.984375 -28.90625 L 6.734375 -28.828125 L 7.515625 -28.984375 L 8.34375 -28.859375 L 11.734375 -28.953125 L 12.546875 -28.859375 L 13.25 -28.90625 L 14.078125 -28.828125 L 14.984375 -28.90625 L 18.328125 -28.953125 L 19.078125 -28.78125 L 19.953125 -28.78125 L 20.765625 -28.453125 L 21.140625 -27.671875 L 21.234375 -25.1875 L 21.1875 -24.359375 L 21.234375 -23.546875 L 20.8125 -22.796875 L 19.953125 -22.296875 L 19.15625 -22.265625 L 13.25 -22.34375 L 12.46875 -22.171875 L 11.6875 -22.21875 L 10.78125 -21.890625 L 10.40625 -21.109375 L 10.40625 -19.828125 L 10.734375 -18.546875 L 11.609375 -18.171875 L 14 -18.25 L 15.734375 -18.125 L 16.59375 -18.21875 L 19.03125 -18.21875 L 19.984375 -17.671875 L 20.40625 -16.515625 L 20.28125 -12.796875 L 19.984375 -11.96875 L 19.15625 -11.640625 L 18.21875 -11.6875 L 17.390625 -11.609375 L 15.6875 -11.640625 L 14.125 -11.5625 L 12.796875 -11.6875 L 11.5625 -11.640625 L 10.8125 -11.1875 L 10.453125 -10.328125 L 10.453125 -7.71875 L 10.78125 -6.984375 L 11.640625 -6.5625 L 12.546875 -6.65625 L 13.34375 -6.53125 L 14.25 -6.5625 L 15.078125 -6.484375 L 16.4375 -6.65625 L 18.546875 -6.609375 L 19.328125 -6.484375 L 20.28125 -6.5625 L 21.140625 -6.1875 L 21.59375 -5.375 L 21.59375 -1.203125 L 21.140625 -0.328125 L 20.28125 0.046875 Z M 14.375 0.125 "/></g></g></g><g fill="#000000" fill-opacity="1"><g transform="translate(124.654068, 306.183846)"><g><path d="M 3.09375 -1.6875 L 3.09375 -7.8125 L 3.015625 -8.625 L 3.0625 -11.96875 L 3.140625 -12.765625 L 3.0625 -13.546875 L 3.0625 -14.375 L 3.015625 -15.28125 L 3.140625 -16.9375 L 3.0625 -17.75 L 3.015625 -27.21875 L 3.515625 -28.375 L 4.25 -28.78125 L 6.6875 -28.984375 L 7.59375 -28.953125 L 8.421875 -28.78125 L 9.25 -28.78125 L 10 -28.984375 L 10.8125 -28.984375 L 11.640625 -28.828125 L 14.125 -28.828125 L 15.328125 -28.90625 L 16.640625 -28.859375 L 19 -28.328125 L 20.5625 -27.796875 L 22.015625 -27.015625 L 24.359375 -24.53125 L 24.8125 -23.875 L 25.15625 -23.171875 L 25.890625 -20.8125 L 26.015625 -19.984375 L 26.09375 -17.390625 L 25.5625 -14.984375 L 23.953125 -12.09375 L 23.375 -11.609375 L 22.796875 -10.984375 L 22.421875 -10.078125 L 22.46875 -9.078125 L 22.96875 -8.46875 L 24.28125 -6.3125 L 24.65625 -5.578125 L 26.0625 -3.46875 L 26.390625 -2.6875 L 26.890625 -2.109375 L 27.34375 -1.203125 L 27.09375 -0.296875 L 26.3125 0.078125 L 24.9375 0.125 L 24.15625 0.046875 L 20.890625 0.078125 L 19.484375 -0.296875 L 18.578125 -1.03125 L 18.125 -1.734375 L 17.796875 -2.5625 L 17.34375 -3.1875 L 16.5625 -4.671875 L 15.6875 -5.90625 L 15.359375 -6.65625 L 14.859375 -7.46875 L 14.046875 -8.171875 L 11.640625 -8.5 L 10.859375 -8.046875 L 10.484375 -7.234375 L 10.40625 -4.578125 L 10.53125 -3.71875 L 10.453125 -2.96875 L 10.453125 -1.5625 L 10.078125 -0.375 L 8.75 0.046875 L 7.515625 0.046875 L 6.859375 0.125 L 5.53125 0 L 4.703125 0.125 L 3.515625 -0.40625 Z M 11.640625 -15.109375 L 12.546875 -15.203125 L 14.53125 -15.109375 L 15.328125 -15.15625 L 16.515625 -15.4375 L 17.265625 -15.78125 L 17.71875 -16.140625 L 18.171875 -16.765625 L 18.546875 -17.59375 L 18.671875 -18.828125 L 18.5 -19.90625 L 18.25 -20.5625 L 17.21875 -21.84375 L 16.4375 -22.046875 L 15.359375 -22.140625 L 14.203125 -22.390625 L 12.546875 -22.21875 L 11.734375 -22.265625 L 10.859375 -21.921875 L 10.484375 -21.140625 L 10.40625 -19.40625 L 10.484375 -18.703125 L 10.484375 -16.234375 L 10.8125 -15.5625 Z M 11.640625 -15.109375 "/></g></g></g><g fill="#000000" fill-opacity="1"><g transform="translate(153.314112, 306.183846)"><g><path d="M 3.09375 -1.6875 L 3.09375 -7.8125 L 3.015625 -8.625 L 3.0625 -11.96875 L 3.140625 -12.765625 L 3.0625 -13.546875 L 3.0625 -14.375 L 3.015625 -15.28125 L 3.140625 -16.9375 L 3.0625 -17.75 L 3.015625 -27.21875 L 3.515625 -28.375 L 4.25 -28.78125 L 6.6875 -28.984375 L 7.59375 -28.953125 L 8.421875 -28.78125 L 9.25 -28.78125 L 10 -28.984375 L 10.8125 -28.984375 L 11.640625 -28.828125 L 14.125 -28.828125 L 15.328125 -28.90625 L 16.640625 -28.859375 L 19 -28.328125 L 20.5625 -27.796875 L 22.015625 -27.015625 L 24.359375 -24.53125 L 24.8125 -23.875 L 25.15625 -23.171875 L 25.890625 -20.8125 L 26.015625 -19.984375 L 26.09375 -17.390625 L 25.5625 -14.984375 L 23.953125 -12.09375 L 23.375 -11.609375 L 22.796875 -10.984375 L 22.421875 -10.078125 L 22.46875 -9.078125 L 22.96875 -8.46875 L 24.28125 -6.3125 L 24.65625 -5.578125 L 26.0625 -3.46875 L 26.390625 -2.6875 L 26.890625 -2.109375 L 27.34375 -1.203125 L 27.09375 -0.296875 L 26.3125 0.078125 L 24.9375 0.125 L 24.15625 0.046875 L 20.890625 0.078125 L 19.484375 -0.296875 L 18.578125 -1.03125 L 18.125 -1.734375 L 17.796875 -2.5625 L 17.34375 -3.1875 L 16.5625 -4.671875 L 15.6875 -5.90625 L 15.359375 -6.65625 L 14.859375 -7.46875 L 14.046875 -8.171875 L 11.640625 -8.5 L 10.859375 -8.046875 L 10.484375 -7.234375 L 10.40625 -4.578125 L 10.53125 -3.71875 L 10.453125 -2.96875 L 10.453125 -1.5625 L 10.078125 -0.375 L 8.75 0.046875 L 7.515625 0.046875 L 6.859375 0.125 L 5.53125 0 L 4.703125 0.125 L 3.515625 -0.40625 Z M 11.640625 -15.109375 L 12.546875 -15.203125 L 14.53125 -15.109375 L 15.328125 -15.15625 L 16.515625 -15.4375 L 17.265625 -15.78125 L 17.71875 -16.140625 L 18.171875 -16.765625 L 18.546875 -17.59375 L 18.671875 -18.828125 L 18.5 -19.90625 L 18.25 -20.5625 L 17.21875 -21.84375 L 16.4375 -22.046875 L 15.359375 -22.140625 L 14.203125 -22.390625 L 12.546875 -22.21875 L 11.734375 -22.265625 L 10.859375 -21.921875 L 10.484375 -21.140625 L 10.40625 -19.40625 L 10.484375 -18.703125 L 10.484375 -16.234375 L 10.8125 -15.5625 Z M 11.640625 -15.109375 "/></g></g></g><g fill="#000000" fill-opacity="1"><g transform="translate(181.974156, 306.183846)"><g><path d="M 14.375 0.125 L 13.546875 0.046875 L 12.71875 0.125 L 11.765625 0.078125 L 10.984375 -0.078125 L 9.296875 0.046875 L 8.546875 0 L 7.640625 0.078125 L 4.671875 0.046875 L 3.421875 -0.5 L 3.09375 -1.609375 L 3.015625 -2.515625 L 3.140625 -5.375 L 3.015625 -6.1875 L 3.09375 -6.984375 L 3.140625 -13.671875 L 3.015625 -14.40625 L 3.0625 -17.796875 L 3.140625 -18.578125 L 3.015625 -19.453125 L 3.09375 -23.5 L 2.96875 -24.40625 L 3.09375 -26.09375 L 3.015625 -27.671875 L 3.46875 -28.53125 L 4.34375 -28.859375 L 5.15625 -28.828125 L 5.984375 -28.90625 L 6.734375 -28.828125 L 7.515625 -28.984375 L 8.34375 -28.859375 L 11.734375 -28.953125 L 12.546875 -28.859375 L 13.25 -28.90625 L 14.078125 -28.828125 L 14.984375 -28.90625 L 18.328125 -28.953125 L 19.078125 -28.78125 L 19.953125 -28.78125 L 20.765625 -28.453125 L 21.140625 -27.671875 L 21.234375 -25.1875 L 21.1875 -24.359375 L 21.234375 -23.546875 L 20.8125 -22.796875 L 19.953125 -22.296875 L 19.15625 -22.265625 L 13.25 -22.34375 L 12.46875 -22.171875 L 11.6875 -22.21875 L 10.78125 -21.890625 L 10.40625 -21.109375 L 10.40625 -19.828125 L 10.734375 -18.546875 L 11.609375 -18.171875 L 14 -18.25 L 15.734375 -18.125 L 16.59375 -18.21875 L 19.03125 -18.21875 L 19.984375 -17.671875 L 20.40625 -16.515625 L 20.28125 -12.796875 L 19.984375 -11.96875 L 19.15625 -11.640625 L 18.21875 -11.6875 L 17.390625 -11.609375 L 15.6875 -11.640625 L 14.125 -11.5625 L 12.796875 -11.6875 L 11.5625 -11.640625 L 10.8125 -11.1875 L 10.453125 -10.328125 L 10.453125 -7.71875 L 10.78125 -6.984375 L 11.640625 -6.5625 L 12.546875 -6.65625 L 13.34375 -6.53125 L 14.25 -6.5625 L 15.078125 -6.484375 L 16.4375 -6.65625 L 18.546875 -6.609375 L 19.328125 -6.484375 L 20.28125 -6.5625 L 21.140625 -6.1875 L 21.59375 -5.375 L 21.59375 -1.203125 L 21.140625 -0.328125 L 20.28125 0.046875 Z M 14.375 0.125 "/></g></g></g><g fill="#000000" fill-opacity="1"><g transform="translate(205.637274, 306.183846)"><g><path d="M 4.296875 0.125 L 3.46875 -0.40625 L 3.015625 -1.28125 L 3.0625 -10.40625 L 2.96875 -11.1875 L 3.09375 -15.359375 L 3.015625 -16.1875 L 3.0625 -22.796875 L 2.96875 -23.546875 L 3.09375 -25.15625 L 2.96875 -27.671875 L 3.421875 -28.53125 L 4.34375 -28.953125 L 5.5 -28.625 L 6.4375 -27.921875 L 7.515625 -26.796875 L 8.171875 -26.21875 L 9.25 -24.9375 L 9.828125 -24.453125 L 13.59375 -20.28125 L 14.5 -19.453125 L 15.234375 -18.5 L 15.8125 -17.921875 L 16.3125 -17.21875 L 17.171875 -16.890625 L 17.921875 -17.390625 L 20.4375 -19.953125 L 20.984375 -20.65625 L 24.609375 -24.359375 L 25.1875 -25.109375 L 25.6875 -25.5625 L 26.21875 -26.21875 L 27.953125 -28.046875 L 28.828125 -28.578125 L 30.015625 -28.953125 L 30.890625 -28.5 L 31.390625 -27.625 L 31.296875 -26.84375 L 31.34375 -25.15625 L 31.296875 -24.453125 L 31.390625 -22.671875 L 31.34375 -21.890625 L 31.390625 -17.796875 L 31.296875 -16.890625 L 31.390625 -4.5 L 31.296875 -3.671875 L 31.421875 -1.53125 L 30.9375 -0.328125 L 30.0625 0.125 L 25.0625 -0.046875 L 24.203125 -0.296875 L 23.875 -1.234375 L 23.875 -1.859375 L 23.78125 -3.71875 L 23.875 -4.453125 L 23.78125 -5.984375 L 23.875 -7.59375 L 23.75 -9.25 L 23.828125 -11.515625 L 23.5 -12.140625 L 22.96875 -11.890625 L 21.265625 -10.15625 L 20.6875 -9.75 L 19.53125 -8.390625 L 19.03125 -7.890625 L 18.453125 -7.265625 L 17.640625 -6.65625 L 16.71875 -6.6875 L 15.859375 -7.3125 L 14.75 -8.390625 L 14.203125 -9.046875 L 12.515625 -10.734375 L 12.015625 -11.359375 L 11.359375 -11.890625 L 10.9375 -12.0625 L 10.578125 -11.6875 L 10.578125 -10.078125 L 10.65625 -9.171875 L 10.578125 -7.6875 L 10.609375 -6.8125 L 10.484375 -5.53125 L 10.609375 -1.203125 L 10.125 -0.453125 L 8.96875 0.046875 L 7.640625 -0.046875 L 6.734375 0.078125 L 5.125 0 Z M 4.296875 0.125 "/></g></g></g><g fill="#000000" fill-opacity="1"><g transform="translate(240.161476, 306.183846)"><g><path d="M 24.359375 0.078125 L 23.5 0 L 22.546875 -0.40625 L 21.71875 -1.03125 L 21.46875 -1.78125 L 21.109375 -2.5625 L 20.3125 -3.21875 L 19.40625 -3.671875 L 18.5 -3.546875 L 17.75 -3.640625 L 13.703125 -3.59375 L 12.96875 -3.71875 L 11.234375 -3.546875 L 10.453125 -3.671875 L 9.578125 -3.21875 L 8.796875 -2.4375 L 8.046875 -1.078125 L 7.265625 -0.328125 L 6.3125 -0.046875 L 4 0.046875 L 3.1875 -0.046875 L 1.5625 0.046875 L 0.75 -0.203125 L 0.53125 -1.234375 L 0.78125 -2.0625 L 1.609375 -3.71875 L 1.8125 -4.453125 L 2.265625 -5.03125 L 2.890625 -6.6875 L 3.640625 -8.015625 L 3.921875 -8.84375 L 4.34375 -9.453125 L 4.578125 -10.359375 L 8.796875 -19.203125 L 9.046875 -19.953125 L 9.5 -20.734375 L 9.703125 -21.5625 L 10.15625 -22.171875 L 11.8125 -25.96875 L 12.1875 -26.546875 L 12.46875 -27.375 L 12.84375 -28.078125 L 13.59375 -28.78125 L 14.90625 -29.234375 L 16.265625 -28.828125 L 16.96875 -28.078125 L 17.75 -26.640625 L 18 -25.890625 L 18.453125 -25.15625 L 18.703125 -24.328125 L 21.4375 -18.578125 L 21.71875 -17.71875 L 22.59375 -16.1875 L 22.84375 -15.53125 L 23.203125 -14.90625 L 23.453125 -14 L 23.875 -13.21875 L 24.28125 -12.59375 L 25.859375 -8.84375 L 26.671875 -7.34375 L 27.25 -5.828125 L 28.375 -3.671875 L 28.984375 -2.140625 L 29.28125 -1.203125 L 29.15625 -0.203125 L 28 0 L 26.71875 0.046875 L 25.9375 -0.046875 Z M 14.984375 -10.203125 L 16.640625 -10.234375 L 17.265625 -10.578125 L 17.421875 -11.3125 L 15.484375 -15.859375 L 14.90625 -16.1875 L 14.453125 -15.8125 L 12.515625 -11.359375 L 12.546875 -10.578125 L 13.21875 -10.28125 L 14.171875 -10.359375 Z M 14.984375 -10.203125 "/></g></g></g><g fill="#000000" fill-opacity="1"><g transform="translate(270.143026, 306.183846)"><g><path d="M 11.109375 0.375 L 9.421875 0.078125 L 7.8125 -0.5 L 6.984375 -0.75 L 6.1875 -1.109375 L 5.609375 -1.734375 L 4.171875 -2.640625 L 3.640625 -3.265625 L 3.0625 -3.796875 L 2.265625 -5.328125 L 2.03125 -6.078125 L 1.859375 -6.890625 L 1.734375 -7.71875 L 2.0625 -8.59375 L 2.8125 -8.921875 L 5.984375 -9.078125 L 6.765625 -8.96875 L 7.515625 -9.046875 L 8.34375 -8.71875 L 9.703125 -7.234375 L 10.40625 -6.765625 L 11.109375 -6.40625 L 13.21875 -6.1875 L 13.953125 -6.3125 L 15.234375 -6.40625 L 16.640625 -7.015625 L 17.171875 -7.640625 L 17.515625 -8.671875 L 17.265625 -9.703125 L 16.71875 -10.203125 L 15.234375 -10.90625 L 8.75 -11.640625 L 7.265625 -12.140625 L 4.453125 -13.671875 L 2.9375 -15.5625 L 2.265625 -17.015625 L 1.984375 -18.671875 L 1.9375 -19.953125 L 2.0625 -21.96875 L 2.8125 -24.234375 L 4.25 -26.1875 L 6.234375 -27.546875 L 7.640625 -28.375 L 9.203125 -28.859375 L 9.953125 -28.984375 L 10.78125 -29.03125 L 11.6875 -29.28125 L 14.859375 -29.203125 L 16.484375 -28.859375 L 18.796875 -28.078125 L 21.515625 -26.1875 L 22.421875 -24.9375 L 23.578125 -22.796875 L 23.65625 -22.015625 L 23.828125 -21.234375 L 23.5 -20.53125 L 22.71875 -19.953125 L 21.96875 -20.03125 L 21.140625 -20.03125 L 20.03125 -20.109375 L 18.09375 -19.953125 L 17.171875 -20.484375 L 16.5625 -21.3125 L 15.859375 -21.890625 L 15.109375 -22.390625 L 14.375 -22.59375 L 13.046875 -22.75 L 11.734375 -22.71875 L 10.984375 -22.546875 L 10.328125 -22.171875 L 9.703125 -21.71875 L 9.203125 -21.1875 L 9 -20.078125 L 9.171875 -18.828125 L 9.78125 -18.25 L 11.3125 -17.515625 L 13.5 -17.0625 L 14.703125 -17.0625 L 15.5625 -16.890625 L 16.390625 -16.84375 L 17.21875 -16.71875 L 20.4375 -15.734375 L 21.1875 -15.28125 L 21.84375 -14.953125 L 22.59375 -14.28125 L 23.65625 -13.046875 L 24.125 -12.390625 L 24.734375 -10 L 24.8125 -8.671875 L 24.578125 -6.609375 L 24.328125 -5.90625 L 24.078125 -5.15625 L 23.625 -4.25 L 23.203125 -3.671875 L 22.015625 -2.4375 L 19.203125 -0.75 L 18.421875 -0.375 L 17.671875 -0.296875 L 16.84375 0.046875 L 16.015625 0.171875 L 15.203125 0.375 L 14.375 0.453125 Z M 11.109375 0.375 "/></g></g></g><g fill="#000000" fill-opacity="1"><g transform="translate(141.656794, 323.503455)"><g><path d="M 3.921875 0.109375 C 3.234375 0.109375 2.5625 0.0195312 1.90625 -0.15625 C 1.25 -0.332031 0.722656 -0.5625 0.328125 -0.84375 L 1.09375 -2.359375 C 1.476562 -2.097656 1.9375 -1.890625 2.46875 -1.734375 C 3.007812 -1.585938 3.539062 -1.515625 4.0625 -1.515625 C 5.25 -1.515625 5.84375 -1.828125 5.84375 -2.453125 C 5.84375 -2.742188 5.691406 -2.945312 5.390625 -3.0625 C 5.085938 -3.1875 4.597656 -3.300781 3.921875 -3.40625 C 3.222656 -3.507812 2.65625 -3.628906 2.21875 -3.765625 C 1.78125 -3.910156 1.398438 -4.15625 1.078125 -4.5 C 0.753906 -4.84375 0.59375 -5.320312 0.59375 -5.9375 C 0.59375 -6.738281 0.925781 -7.378906 1.59375 -7.859375 C 2.269531 -8.347656 3.179688 -8.59375 4.328125 -8.59375 C 4.910156 -8.59375 5.492188 -8.523438 6.078125 -8.390625 C 6.660156 -8.253906 7.132812 -8.078125 7.5 -7.859375 L 6.75 -6.34375 C 6.019531 -6.769531 5.207031 -6.984375 4.3125 -6.984375 C 3.726562 -6.984375 3.285156 -6.894531 2.984375 -6.71875 C 2.679688 -6.539062 2.53125 -6.3125 2.53125 -6.03125 C 2.53125 -5.707031 2.691406 -5.476562 3.015625 -5.34375 C 3.335938 -5.21875 3.835938 -5.097656 4.515625 -4.984375 C 5.191406 -4.867188 5.75 -4.742188 6.1875 -4.609375 C 6.625 -4.472656 7 -4.238281 7.3125 -3.90625 C 7.625 -3.582031 7.78125 -3.117188 7.78125 -2.515625 C 7.78125 -1.710938 7.429688 -1.070312 6.734375 -0.59375 C 6.046875 -0.125 5.109375 0.109375 3.921875 0.109375 Z M 3.921875 0.109375 "/></g></g></g><g fill="#000000" fill-opacity="1"><g transform="translate(150.667602, 323.503455)"><g><path d="M 1.296875 -8.5 L 3.296875 -8.5 L 3.296875 0 L 1.296875 0 Z M 2.3125 -9.890625 C 1.945312 -9.890625 1.640625 -10.003906 1.390625 -10.234375 C 1.148438 -10.460938 1.03125 -10.75 1.03125 -11.09375 C 1.03125 -11.425781 1.148438 -11.707031 1.390625 -11.9375 C 1.640625 -12.164062 1.945312 -12.28125 2.3125 -12.28125 C 2.664062 -12.28125 2.960938 -12.171875 3.203125 -11.953125 C 3.453125 -11.734375 3.578125 -11.460938 3.578125 -11.140625 C 3.578125 -10.785156 3.457031 -10.488281 3.21875 -10.25 C 2.976562 -10.007812 2.675781 -9.890625 2.3125 -9.890625 Z M 2.3125 -9.890625 "/></g></g></g><g fill="#000000" fill-opacity="1"><g transform="translate(156.087117, 323.503455)"><g><path d="M 6.125 -8.59375 C 7.195312 -8.59375 8.054688 -8.28125 8.703125 -7.65625 C 9.347656 -7.03125 9.671875 -6.101562 9.671875 -4.875 L 9.671875 0 L 7.6875 0 L 7.6875 -4.609375 C 7.6875 -5.347656 7.507812 -5.90625 7.15625 -6.28125 C 6.8125 -6.664062 6.3125 -6.859375 5.65625 -6.859375 C 4.925781 -6.859375 4.347656 -6.632812 3.921875 -6.1875 C 3.503906 -5.75 3.296875 -5.117188 3.296875 -4.296875 L 3.296875 0 L 1.296875 0 L 1.296875 -8.5 L 3.203125 -8.5 L 3.203125 -7.390625 C 3.523438 -7.785156 3.9375 -8.082031 4.4375 -8.28125 C 4.9375 -8.488281 5.5 -8.59375 6.125 -8.59375 Z M 6.125 -8.59375 "/></g></g></g><g fill="#000000" fill-opacity="1"><g transform="translate(167.799338, 323.503455)"><g><path d="M 5.203125 0.109375 C 4.316406 0.109375 3.523438 -0.0703125 2.828125 -0.4375 C 2.128906 -0.8125 1.582031 -1.328125 1.1875 -1.984375 C 0.800781 -2.648438 0.609375 -3.40625 0.609375 -4.25 C 0.609375 -5.082031 0.800781 -5.828125 1.1875 -6.484375 C 1.582031 -7.140625 2.125 -7.65625 2.8125 -8.03125 C 3.507812 -8.40625 4.304688 -8.59375 5.203125 -8.59375 C 6.035156 -8.59375 6.765625 -8.421875 7.390625 -8.078125 C 8.023438 -7.742188 8.503906 -7.253906 8.828125 -6.609375 L 7.296875 -5.71875 C 7.054688 -6.113281 6.753906 -6.410156 6.390625 -6.609375 C 6.023438 -6.804688 5.625 -6.90625 5.1875 -6.90625 C 4.445312 -6.90625 3.832031 -6.660156 3.34375 -6.171875 C 2.851562 -5.691406 2.609375 -5.050781 2.609375 -4.25 C 2.609375 -3.4375 2.847656 -2.789062 3.328125 -2.3125 C 3.816406 -1.832031 4.4375 -1.59375 5.1875 -1.59375 C 5.625 -1.59375 6.023438 -1.6875 6.390625 -1.875 C 6.753906 -2.070312 7.054688 -2.367188 7.296875 -2.765625 L 8.828125 -1.875 C 8.492188 -1.238281 8.007812 -0.75 7.375 -0.40625 C 6.75 -0.0625 6.023438 0.109375 5.203125 0.109375 Z M 5.203125 0.109375 "/></g></g></g><g fill="#000000" fill-opacity="1"><g transform="translate(177.858928, 323.503455)"><g><path d="M 9.296875 -4.203125 C 9.296875 -4.066406 9.28125 -3.867188 9.25 -3.609375 L 2.59375 -3.609375 C 2.707031 -2.984375 3.007812 -2.488281 3.5 -2.125 C 4 -1.757812 4.613281 -1.578125 5.34375 -1.578125 C 6.28125 -1.578125 7.050781 -1.882812 7.65625 -2.5 L 8.71875 -1.265625 C 8.332031 -0.816406 7.847656 -0.472656 7.265625 -0.234375 C 6.679688 -0.00390625 6.023438 0.109375 5.296875 0.109375 C 4.359375 0.109375 3.535156 -0.0703125 2.828125 -0.4375 C 2.117188 -0.8125 1.570312 -1.328125 1.1875 -1.984375 C 0.800781 -2.648438 0.609375 -3.40625 0.609375 -4.25 C 0.609375 -5.070312 0.796875 -5.8125 1.171875 -6.46875 C 1.546875 -7.132812 2.066406 -7.65625 2.734375 -8.03125 C 3.398438 -8.40625 4.15625 -8.59375 5 -8.59375 C 5.820312 -8.59375 6.554688 -8.40625 7.203125 -8.03125 C 7.859375 -7.664062 8.367188 -7.148438 8.734375 -6.484375 C 9.109375 -5.828125 9.296875 -5.066406 9.296875 -4.203125 Z M 5 -7 C 4.363281 -7 3.820312 -6.8125 3.375 -6.4375 C 2.9375 -6.0625 2.671875 -5.5625 2.578125 -4.9375 L 7.390625 -4.9375 C 7.304688 -5.550781 7.046875 -6.046875 6.609375 -6.421875 C 6.179688 -6.804688 5.644531 -7 5 -7 Z M 5 -7 "/></g></g></g><g fill="#000000" fill-opacity="1"><g transform="translate(188.570031, 323.503455)"><g/></g></g><g fill="#000000" fill-opacity="1"><g transform="translate(193.782969, 323.503455)"><g><path d="M 4.546875 -11.140625 L 4.546875 0 L 2.484375 0 L 2.484375 -9.40625 L 0.125 -9.40625 L 0.125 -11.140625 Z M 4.546875 -11.140625 "/></g></g></g><g fill="#000000" fill-opacity="1"><g transform="translate(200.664421, 323.503455)"><g><path d="M 4.453125 -11.296875 C 5.984375 -11.296875 7.164062 -10.816406 8 -9.859375 C 8.84375 -8.910156 9.265625 -7.546875 9.265625 -5.765625 C 9.265625 -4.503906 9.035156 -3.429688 8.578125 -2.546875 C 8.128906 -1.660156 7.492188 -0.988281 6.671875 -0.53125 C 5.847656 -0.0703125 4.894531 0.15625 3.8125 0.15625 C 3.238281 0.15625 2.703125 0.0976562 2.203125 -0.015625 C 1.703125 -0.140625 1.265625 -0.320312 0.890625 -0.5625 L 1.65625 -2.109375 C 2.207031 -1.753906 2.910156 -1.578125 3.765625 -1.578125 C 4.835938 -1.578125 5.675781 -1.90625 6.28125 -2.5625 C 6.882812 -3.21875 7.1875 -4.164062 7.1875 -5.40625 L 7.1875 -5.421875 C 6.863281 -5.035156 6.445312 -4.742188 5.9375 -4.546875 C 5.425781 -4.359375 4.851562 -4.265625 4.21875 -4.265625 C 3.488281 -4.265625 2.832031 -4.40625 2.25 -4.6875 C 1.664062 -4.96875 1.207031 -5.367188 0.875 -5.890625 C 0.539062 -6.410156 0.375 -7.007812 0.375 -7.6875 C 0.375 -8.40625 0.554688 -9.035156 0.921875 -9.578125 C 1.285156 -10.128906 1.773438 -10.550781 2.390625 -10.84375 C 3.003906 -11.144531 3.691406 -11.296875 4.453125 -11.296875 Z M 4.609375 -5.890625 C 5.273438 -5.890625 5.816406 -6.066406 6.234375 -6.421875 C 6.660156 -6.785156 6.875 -7.242188 6.875 -7.796875 C 6.875 -8.335938 6.664062 -8.785156 6.25 -9.140625 C 5.84375 -9.492188 5.28125 -9.671875 4.5625 -9.671875 C 3.914062 -9.671875 3.390625 -9.5 2.984375 -9.15625 C 2.585938 -8.8125 2.390625 -8.351562 2.390625 -7.78125 C 2.390625 -7.195312 2.585938 -6.734375 2.984375 -6.390625 C 3.390625 -6.054688 3.929688 -5.890625 4.609375 -5.890625 Z M 4.609375 -5.890625 "/></g></g></g><g fill="#000000" fill-opacity="1"><g transform="translate(211.45498, 323.503455)"><g><path d="M 7.921875 -5.859375 C 8.503906 -5.585938 8.953125 -5.226562 9.265625 -4.78125 C 9.578125 -4.332031 9.734375 -3.804688 9.734375 -3.203125 C 9.734375 -2.515625 9.546875 -1.914062 9.171875 -1.40625 C 8.796875 -0.90625 8.257812 -0.519531 7.5625 -0.25 C 6.875 0.0195312 6.078125 0.15625 5.171875 0.15625 C 4.253906 0.15625 3.453125 0.0195312 2.765625 -0.25 C 2.085938 -0.519531 1.5625 -0.90625 1.1875 -1.40625 C 0.820312 -1.914062 0.640625 -2.515625 0.640625 -3.203125 C 0.640625 -3.804688 0.789062 -4.332031 1.09375 -4.78125 C 1.40625 -5.226562 1.847656 -5.585938 2.421875 -5.859375 C 1.972656 -6.097656 1.628906 -6.414062 1.390625 -6.8125 C 1.148438 -7.207031 1.03125 -7.664062 1.03125 -8.1875 C 1.03125 -8.8125 1.203125 -9.359375 1.546875 -9.828125 C 1.890625 -10.296875 2.375 -10.65625 3 -10.90625 C 3.625 -11.164062 4.347656 -11.296875 5.171875 -11.296875 C 5.992188 -11.296875 6.71875 -11.164062 7.34375 -10.90625 C 7.96875 -10.65625 8.457031 -10.296875 8.8125 -9.828125 C 9.164062 -9.359375 9.34375 -8.8125 9.34375 -8.1875 C 9.34375 -7.664062 9.21875 -7.207031 8.96875 -6.8125 C 8.726562 -6.425781 8.378906 -6.109375 7.921875 -5.859375 Z M 5.171875 -9.671875 C 4.523438 -9.671875 4.007812 -9.53125 3.625 -9.25 C 3.25 -8.976562 3.0625 -8.59375 3.0625 -8.09375 C 3.0625 -7.613281 3.25 -7.234375 3.625 -6.953125 C 4.007812 -6.671875 4.523438 -6.53125 5.171875 -6.53125 C 5.828125 -6.53125 6.34375 -6.671875 6.71875 -6.953125 C 7.101562 -7.234375 7.296875 -7.613281 7.296875 -8.09375 C 7.296875 -8.59375 7.101562 -8.976562 6.71875 -9.25 C 6.332031 -9.53125 5.816406 -9.671875 5.171875 -9.671875 Z M 5.171875 -1.46875 C 5.929688 -1.46875 6.535156 -1.625 6.984375 -1.9375 C 7.429688 -2.257812 7.65625 -2.703125 7.65625 -3.265625 C 7.65625 -3.816406 7.429688 -4.25 6.984375 -4.5625 C 6.535156 -4.882812 5.929688 -5.046875 5.171875 -5.046875 C 4.410156 -5.046875 3.8125 -4.882812 3.375 -4.5625 C 2.9375 -4.25 2.71875 -3.816406 2.71875 -3.265625 C 2.71875 -2.703125 2.9375 -2.257812 3.375 -1.9375 C 3.8125 -1.625 4.410156 -1.46875 5.171875 -1.46875 Z M 5.171875 -1.46875 "/></g></g></g><g fill="#000000" fill-opacity="1"><g transform="translate(222.642809, 323.503455)"><g><path d="M 5.34375 0.15625 C 4.457031 0.15625 3.660156 -0.0664062 2.953125 -0.515625 C 2.253906 -0.960938 1.703125 -1.617188 1.296875 -2.484375 C 0.898438 -3.347656 0.703125 -4.375 0.703125 -5.5625 C 0.703125 -6.75 0.898438 -7.773438 1.296875 -8.640625 C 1.703125 -9.503906 2.253906 -10.160156 2.953125 -10.609375 C 3.660156 -11.066406 4.457031 -11.296875 5.34375 -11.296875 C 6.238281 -11.296875 7.035156 -11.066406 7.734375 -10.609375 C 8.441406 -10.160156 8.992188 -9.503906 9.390625 -8.640625 C 9.796875 -7.773438 10 -6.75 10 -5.5625 C 10 -4.375 9.796875 -3.347656 9.390625 -2.484375 C 8.992188 -1.617188 8.441406 -0.960938 7.734375 -0.515625 C 7.035156 -0.0664062 6.238281 0.15625 5.34375 0.15625 Z M 5.34375 -1.640625 C 6.132812 -1.640625 6.757812 -1.96875 7.21875 -2.625 C 7.6875 -3.28125 7.921875 -4.257812 7.921875 -5.5625 C 7.921875 -6.875 7.6875 -7.859375 7.21875 -8.515625 C 6.757812 -9.171875 6.132812 -9.5 5.34375 -9.5 C 4.5625 -9.5 3.9375 -9.171875 3.46875 -8.515625 C 3.007812 -7.859375 2.78125 -6.875 2.78125 -5.5625 C 2.78125 -4.257812 3.007812 -3.28125 3.46875 -2.625 C 3.9375 -1.96875 4.5625 -1.640625 5.34375 -1.640625 Z M 5.34375 -1.640625 "/></g></g></g></svg>